<svg width="165" height="131" viewBox="0 0 165 131" fill="none" xmlns="http://www.w3.org/2000/svg">
<path d="M93.5 0L136.28 16.834L154 57.475L136.28 98.116L93.5 114.95L50.72 98.116L33 57.475L50.72 16.834L93.5 0Z" fill="#43C0C0"/>
<path d="M24.0634 95C23.3278 95 22.7595 94.7667 22.3582 94.3C22.0239 93.7667 21.9236 93.1667 22.0573 92.5L35.8994 27.5C36.0332 26.7667 36.401 26.1667 37.0028 25.7C37.6046 25.2333 38.2399 25 38.9086 25H68.298C75.3862 25 80.903 26.3667 84.8483 29.1C88.7937 31.8333 90.7663 35.6667 90.7663 40.6C90.7663 41.7333 90.5992 43.1333 90.2648 44.8C89.5293 48.2667 88.0581 51.1333 85.8514 53.4C83.7116 55.6667 81.438 57.3 79.0306 58.3C81.1036 59.4333 82.7754 61.0667 84.0459 63.2C85.3164 65.2667 85.9517 67.6333 85.9517 70.3C85.9517 71.0333 85.818 72.2 85.5505 73.8C82.5413 87.9333 72.9789 95 56.8632 95H24.0634ZM61.3769 52.8C64.3861 52.8 66.8269 51.9 68.6992 50.1C70.6384 48.2333 71.6081 45.9667 71.6081 43.3C71.6081 41.7 71.0731 40.4333 70.0032 39.5C68.9333 38.5 67.3284 38 65.1885 38H51.7476L48.5379 52.8H61.3769ZM56.2614 82C58.4012 82 60.2736 81.5 61.8785 80.5C63.5502 79.5 64.8207 78.2 65.6901 76.6C66.6262 74.9333 67.0943 73.2333 67.0943 71.5C67.0943 69.6333 66.4925 68.1667 65.2888 67.1C64.1521 66.0333 62.3466 65.5 59.8724 65.5H45.8296L42.319 82H56.2614Z" fill="#0A5C5C"/>
<path d="M122.471 96C114.112 96 107.692 94.2 103.212 90.6C98.7317 87 96.4916 81.8 96.4916 75C96.4916 73.1333 96.6922 71.1 97.0934 68.9C98.0296 63.4333 99.3336 57.3 101.005 50.5C103.078 42.1 107.358 35.6 113.844 31C120.398 26.3333 128.389 24 137.817 24C143.702 24 148.684 24.9 152.763 26.7C156.842 28.4333 159.884 30.7 161.891 33.5C163.964 36.3 165 39.3 165 42.5C165 43.0333 164.933 43.8333 164.799 44.9C164.666 45.5 164.331 46 163.796 46.4C163.328 46.8 162.76 47 162.091 47H147.447C146.778 47 146.276 46.9 145.942 46.7C145.608 46.5 145.34 46.1333 145.14 45.6C144.738 43.6667 143.735 42 142.13 40.6C140.592 39.1333 138.152 38.4 134.808 38.4C126.784 38.4 121.702 42.6 119.562 51C118.358 55.7333 117.121 61.5333 115.85 68.4C115.65 69.8 115.55 71.0333 115.55 72.1C115.55 78.4333 118.993 81.6 125.881 81.6C129.826 81.6 133.203 80.6 136.012 78.6C138.82 76.5333 140.659 73.4 141.529 69.2L141.93 67.3H132.501C131.766 67.3 131.197 67.0667 130.796 66.6C130.462 66.0667 130.361 65.4333 130.495 64.7L132.1 57.3C132.234 56.5667 132.601 55.9667 133.203 55.5C133.805 54.9667 134.474 54.7 135.209 54.7H160.486C161.222 54.7 161.79 54.9333 162.191 55.4C162.459 55.8 162.593 56.2333 162.593 56.7C162.593 56.9 162.559 57.1 162.492 57.3L160.085 68.7C158.815 74.3667 156.441 79.2667 152.963 83.4C149.486 87.4667 145.106 90.6 139.823 92.8C134.608 94.9333 128.823 96 122.471 96Z" fill="#0A5C5C"/>
</svg>
